# This file uses centimeters as units for non-parametric coordinates.

mtllib triangulo.mtl
g default
v 14.532936 8.684536 2.975162
v 14.515119 8.684536 2.993839
v 14.515119 8.033633 2.993839
v 14.532936 8.033633 2.975162
v 10.968924 8.033633 -0.389134
v 14.397408 8.033633 -3.983036
v 10.968924 8.684536 -0.389134
v 14.397408 8.684536 -3.983036
vt 0.126289 0.250000
vt 0.125000 0.250000
vt 0.125000 0.000000
vt 0.126289 0.000000
vt 0.375000 0.751289
vt 0.375000 0.750000
vt 0.625000 0.750000
vt 0.625000 0.997986
vt 0.375000 0.500000
vt 0.625000 0.500000
vt 0.458759 0.076713
vt 0.458759 0.126713
vt 0.577093 0.126713
vt 0.577093 0.076713
vt 0.625000 0.252014
vt 0.375000 0.498711
vt 0.627014 0.000000
vt 0.875000 0.000000
vt 0.875000 0.250000
vt 0.627014 0.250000
vn 0.723562 0.000000 0.690259
vn 0.723562 0.000000 0.690259
vn 0.723562 0.000000 0.690259
vn 0.723562 0.000000 0.690259
vn 0.000000 -1.000000 0.000000
vn 0.000000 -1.000000 0.000000
vn 0.000000 -1.000000 0.000000
vn 0.000000 -1.000000 0.000000
vn -0.690259 0.000000 0.723562
vn -0.690259 0.000000 0.723562
vn -0.690259 0.000000 0.723562
vn -0.690259 0.000000 0.723562
vn 0.999810 0.000000 -0.019474
vn 0.999810 0.000000 -0.019474
vn 0.999810 0.000000 -0.019474
vn 0.999810 0.000000 -0.019474
vn 0.000000 1.000000 -0.000000
vn 0.000000 1.000000 -0.000000
vn 0.000000 1.000000 -0.000000
vn 0.000000 1.000000 -0.000000
vn -0.723562 0.000000 -0.690259
vn -0.723562 0.000000 -0.690259
vn -0.723562 0.000000 -0.690259
vn -0.723562 0.000000 -0.690259
s off
g pCube3
usemtl initialShadingGroup
f 1/1/1 2/2/2 3/3/3 4/4/4
f 4/5/5 3/6/6 5/7/7 6/8/8
f 2/9/9 7/10/10 5/7/11 3/6/12
f 6/11/13 8/12/14 1/13/15 4/14/16
f 8/15/17 7/10/18 2/9/19 1/16/20
f 6/17/21 5/18/22 7/19/23 8/20/24
